<?xml version="1.0" encoding="iso-8859-1"?>
<!-- Generator: Adobe Illustrator 19.0.0, SVG Export Plug-In . SVG Version: 6.00 Build 0)  -->
<svg version="1.1" id="Capa_1" xmlns="http://www.w3.org/2000/svg" xmlns:xlink="http://www.w3.org/1999/xlink" x="0px" y="0px"
	 viewBox="0 0 480 480" style="enable-background:new 0 0 480 480;" xml:space="preserve">
<path style="fill:#FF9811;" d="M168,136h-8v336h152V264h8v-32h32v32h32V136H168z M320,168h32v32h-32V168z M256,168h32v32h-32V168z
	 M256,232h32v32h-32V232z M256,296h32v32h-32V296z M256,360h32v32h-32V360z M224,392h-32v-32h32V392z M224,328h-32v-32h32V328z
	 M224,264h-32v-32h32V264z M224,200h-32v-32h32V200z"/>
<path style="fill:#FFBF6A;" d="M8,8v464h152V136h8v-32h32v32h32V8H8z M72,392H40v-32h32V392z M72,328H40v-32h32V328z M72,264H40v-32
	h32V264z M72,200H40v-32h32V200z M72,136H40v-32h32V136z M72,72H40V40h32V72z M136,392h-32v-32h32V392z M136,328h-32v-32h32V328z
	 M136,264h-32v-32h32V264z M136,200h-32v-32h32V200z M136,136h-32v-32h32V136z M136,72h-32V40h32V72z M200,72h-32V40h32V72z"/>
<g>
	<path style="fill:#FFE060;" d="M40,40h32v32H40V40z"/>
	<path style="fill:#FFE060;" d="M104,40h32v32h-32V40z"/>
	<path style="fill:#FFE060;" d="M168,40h32v32h-32V40z"/>
	<path style="fill:#FFE060;" d="M168,104h32v32h-32V104z"/>
	<path style="fill:#FFE060;" d="M40,104h32v32H40V104z"/>
	<path style="fill:#FFE060;" d="M104,104h32v32h-32V104z"/>
	<path style="fill:#FFE060;" d="M40,168h32v32H40V168z"/>
	<path style="fill:#FFE060;" d="M104,168h32v32h-32V168z"/>
	<path style="fill:#FFE060;" d="M40,232h32v32H40V232z"/>
	<path style="fill:#FFE060;" d="M104,232h32v32h-32V232z"/>
	<path style="fill:#FFE060;" d="M40,296h32v32H40V296z"/>
	<path style="fill:#FFE060;" d="M104,296h32v32h-32V296z"/>
	<path style="fill:#FFE060;" d="M40,360h32v32H40V360z"/>
	<path style="fill:#FFE060;" d="M104,360h32v32h-32V360z"/>
</g>
<g>
	<path style="fill:#ABD3F2;" d="M192,168h32v32h-32V168z"/>
	<path style="fill:#ABD3F2;" d="M256,168h32v32h-32V168z"/>
	<path style="fill:#ABD3F2;" d="M320,168h32v32h-32V168z"/>
	<path style="fill:#ABD3F2;" d="M192,232h32v32h-32V232z"/>
	<path style="fill:#ABD3F2;" d="M256,232h32v32h-32V232z"/>
	<path style="fill:#ABD3F2;" d="M320,232h32v32h-32V232z"/>
	<path style="fill:#ABD3F2;" d="M192,296h32v32h-32V296z"/>
	<path style="fill:#ABD3F2;" d="M256,296h32v32h-32V296z"/>
	<path style="fill:#ABD3F2;" d="M192,360h32v32h-32V360z"/>
	<path style="fill:#ABD3F2;" d="M256,360h32v32h-32V360z"/>
</g>
<path style="fill:#FF5023;" d="M320,264h-8v208h160V264H320z M408,296h32v32h-32V296z M408,360h32v32h-32V360z M376,392h-32v-32h32
	V392z M376,328h-32v-32h32V328z"/>
<g>
	<path style="fill:#60E6EB;" d="M344,296h32v32h-32V296z"/>
	<path style="fill:#60E6EB;" d="M408,296h32v32h-32V296z"/>
	<path style="fill:#60E6EB;" d="M344,360h32v32h-32V360z"/>
	<path style="fill:#60E6EB;" d="M408,360h32v32h-32V360z"/>
</g>
<g>
	<path style="fill:#353535;" d="M72,32H40c-4.418,0-8,3.582-8,8v32c0,4.418,3.582,8,8,8h32c4.418,0,8-3.582,8-8V40
		C80,35.582,76.418,32,72,32z M64,64H48V48h16V64z"/>
	<path style="fill:#353535;" d="M136,32h-32c-4.418,0-8,3.582-8,8v32c0,4.418,3.582,8,8,8h32c4.418,0,8-3.582,8-8V40
		C144,35.582,140.418,32,136,32z M128,64h-16V48h16V64z"/>
	<path style="fill:#353535;" d="M168,80h32c4.418,0,8-3.582,8-8V40c0-4.418-3.582-8-8-8h-32c-4.418,0-8,3.582-8,8v32
		C160,76.418,163.582,80,168,80z M176,48h16v16h-16V48z"/>
	<path style="fill:#353535;" d="M72,96H40c-4.418,0-8,3.582-8,8v32c0,4.418,3.582,8,8,8h32c4.418,0,8-3.582,8-8v-32
		C80,99.582,76.418,96,72,96z M64,128H48v-16h16V128z"/>
	<path style="fill:#353535;" d="M136,96h-32c-4.418,0-8,3.582-8,8v32c0,4.418,3.582,8,8,8h32c4.418,0,8-3.582,8-8v-32
		C144,99.582,140.418,96,136,96z M128,128h-16v-16h16V128z"/>
	<path style="fill:#353535;" d="M72,160H40c-4.418,0-8,3.582-8,8v32c0,4.418,3.582,8,8,8h32c4.418,0,8-3.582,8-8v-32
		C80,163.582,76.418,160,72,160z M64,192H48v-16h16V192z"/>
	<path style="fill:#353535;" d="M136,160h-32c-4.418,0-8,3.582-8,8v32c0,4.418,3.582,8,8,8h32c4.418,0,8-3.582,8-8v-32
		C144,163.582,140.418,160,136,160z M128,192h-16v-16h16V192z"/>
	<path style="fill:#353535;" d="M72,224H40c-4.418,0-8,3.582-8,8v32c0,4.418,3.582,8,8,8h32c4.418,0,8-3.582,8-8v-32
		C80,227.582,76.418,224,72,224z M64,256H48v-16h16V256z"/>
	<path style="fill:#353535;" d="M136,224h-32c-4.418,0-8,3.582-8,8v32c0,4.418,3.582,8,8,8h32c4.418,0,8-3.582,8-8v-32
		C144,227.582,140.418,224,136,224z M128,256h-16v-16h16V256z"/>
	<path style="fill:#353535;" d="M72,288H40c-4.418,0-8,3.582-8,8v32c0,4.418,3.582,8,8,8h32c4.418,0,8-3.582,8-8v-32
		C80,291.582,76.418,288,72,288z M64,320H48v-16h16V320z"/>
	<path style="fill:#353535;" d="M136,288h-32c-4.418,0-8,3.582-8,8v32c0,4.418,3.582,8,8,8h32c4.418,0,8-3.582,8-8v-32
		C144,291.582,140.418,288,136,288z M128,320h-16v-16h16V320z"/>
	<path style="fill:#353535;" d="M72,352H40c-4.418,0-8,3.582-8,8v32c0,4.418,3.582,8,8,8h32c4.418,0,8-3.582,8-8v-32
		C80,355.582,76.418,352,72,352z M64,384H48v-16h16V384z"/>
	<path style="fill:#353535;" d="M136,352h-32c-4.418,0-8,3.582-8,8v32c0,4.418,3.582,8,8,8h32c4.418,0,8-3.582,8-8v-32
		C144,355.582,140.418,352,136,352z M128,384h-16v-16h16V384z"/>
	<path style="fill:#353535;" d="M224,160h-32c-4.418,0-8,3.582-8,8v32c0,4.418,3.582,8,8,8h32c4.418,0,8-3.582,8-8v-32
		C232,163.582,228.418,160,224,160z M216,192h-16v-16h16V192z"/>
	<path style="fill:#353535;" d="M288,160h-32c-4.418,0-8,3.582-8,8v32c0,4.418,3.582,8,8,8h32c4.418,0,8-3.582,8-8v-32
		C296,163.582,292.418,160,288,160z M280,192h-16v-16h16V192z"/>
	<path style="fill:#353535;" d="M320,208h32c4.418,0,8-3.582,8-8v-32c0-4.418-3.582-8-8-8h-32c-4.418,0-8,3.582-8,8v32
		C312,204.418,315.582,208,320,208z M328,176h16v16h-16V176z"/>
	<path style="fill:#353535;" d="M224,224h-32c-4.418,0-8,3.582-8,8v32c0,4.418,3.582,8,8,8h32c4.418,0,8-3.582,8-8v-32
		C232,227.582,228.418,224,224,224z M216,256h-16v-16h16V256z"/>
	<path style="fill:#353535;" d="M288,224h-32c-4.418,0-8,3.582-8,8v32c0,4.418,3.582,8,8,8h32c4.418,0,8-3.582,8-8v-32
		C296,227.582,292.418,224,288,224z M280,256h-16v-16h16V256z"/>
	<path style="fill:#353535;" d="M224,288h-32c-4.418,0-8,3.582-8,8v32c0,4.418,3.582,8,8,8h32c4.418,0,8-3.582,8-8v-32
		C232,291.582,228.418,288,224,288z M216,320h-16v-16h16V320z"/>
	<path style="fill:#353535;" d="M288,288h-32c-4.418,0-8,3.582-8,8v32c0,4.418,3.582,8,8,8h32c4.418,0,8-3.582,8-8v-32
		C296,291.582,292.418,288,288,288z M280,320h-16v-16h16V320z"/>
	<path style="fill:#353535;" d="M224,352h-32c-4.418,0-8,3.582-8,8v32c0,4.418,3.582,8,8,8h32c4.418,0,8-3.582,8-8v-32
		C232,355.582,228.418,352,224,352z M216,384h-16v-16h16V384z"/>
	<path style="fill:#353535;" d="M288,352h-32c-4.418,0-8,3.582-8,8v32c0,4.418,3.582,8,8,8h32c4.418,0,8-3.582,8-8v-32
		C296,355.582,292.418,352,288,352z M280,384h-16v-16h16V384z"/>
	<path style="fill:#353535;" d="M472,256h-80V136c0-4.418-3.582-8-8-8H240V8c0-4.418-3.582-8-8-8H8C3.582,0,0,3.582,0,8v464
		c0,4.418,3.582,8,8,8h464c4.418,0,8-3.582,8-8V264C480,259.582,476.418,256,472,256z M16,16h208v112h-16v-24c0-4.418-3.582-8-8-8
		h-32c-4.418,0-8,3.582-8,8v24c-4.418,0-8,3.582-8,8v328H16V16z M192,128h-16v-16h16V128z M168,464V144h208v112h-16v-24
		c0-4.418-3.582-8-8-8h-32c-4.418,0-8,3.582-8,8v24c-4.418,0-8,3.582-8,8v200H168z M344,256h-16v-16h16V256z M464,464H320V272h144
		V464z"/>
	<path style="fill:#353535;" d="M336,296v32c0,4.418,3.582,8,8,8h32c4.418,0,8-3.582,8-8v-32c0-4.418-3.582-8-8-8h-32
		C339.582,288,336,291.582,336,296z M352,304h16v16h-16V304z"/>
	<path style="fill:#353535;" d="M408,336h32c4.418,0,8-3.582,8-8v-32c0-4.418-3.582-8-8-8h-32c-4.418,0-8,3.582-8,8v32
		C400,332.418,403.582,336,408,336z M416,304h16v16h-16V304z"/>
	<path style="fill:#353535;" d="M376,352h-32c-4.418,0-8,3.582-8,8v32c0,4.418,3.582,8,8,8h32c4.418,0,8-3.582,8-8v-32
		C384,355.582,380.418,352,376,352z M368,384h-16v-16h16V384z"/>
	<path style="fill:#353535;" d="M408,400h32c4.418,0,8-3.582,8-8v-32c0-4.418-3.582-8-8-8h-32c-4.418,0-8,3.582-8,8v32
		C400,396.418,403.582,400,408,400z M416,368h16v16h-16V368z"/>
</g>
<g>
</g>
<g>
</g>
<g>
</g>
<g>
</g>
<g>
</g>
<g>
</g>
<g>
</g>
<g>
</g>
<g>
</g>
<g>
</g>
<g>
</g>
<g>
</g>
<g>
</g>
<g>
</g>
<g>
</g>
</svg>
