<svg id="Capa_1" enable-background="new 0 0 512 512" height="512" viewBox="0 0 512 512" width="512" xmlns="http://www.w3.org/2000/svg"><g><g><g><path d="m168.116 64.069v50.508h32.325v-38.386h111.118v38.386h32.325v-50.508c0-11.158-9.045-20.203-20.203-20.203h-135.362c-11.158 0-20.203 9.045-20.203 20.203z" fill="#818181"/></g><g><path d="m168.116 94.374h32.325v20.203h-32.325z" fill="#595959"/></g><g><path d="m311.559 94.374h32.325v20.203h-32.325z" fill="#595959"/></g></g><g><path d="m484.297 468.134h-456.594c-11.158 0-20.203-9.045-20.203-20.203v-313.151c0-11.158 9.045-20.203 20.203-20.203h456.593c11.158 0 20.203 9.045 20.203 20.203v313.15c.001 11.159-9.044 20.204-20.202 20.204z" fill="#b78b7a"/></g><g><path d="m111.547 75.181h288.906v432.349h-288.906z" fill="#986b54" transform="matrix(0 1 -1 0 547.356 35.356)"/></g><g><path d="m385.301 114.577h34.346v353.557h-34.346z" fill="#ffe07d"/></g><g><path d="m484.297 114.577h-24.244c11.158 0 20.203 9.045 20.203 20.203v313.15c0 11.158-9.045 20.203-20.203 20.203h24.244c11.158 0 20.203-9.045 20.203-20.203v-313.15c0-11.157-9.045-20.203-20.203-20.203z" fill="#aa7a63"/></g><g><path d="m92.354 114.577h34.346v353.557h-34.346z" fill="#ffe07d" transform="matrix(-1 0 0 -1 219.053 582.711)"/></g><g><path d="m484.297 114.577h-28.285v28.285c0 11.158 9.045 20.203 20.203 20.203h28.285v-28.285c0-11.157-9.045-20.203-20.203-20.203z" fill="#818181"/></g><g><path d="m484.297 114.577h-24.244c11.158 0 20.203 9.045 20.203 20.203v28.285h24.244v-28.285c0-11.157-9.045-20.203-20.203-20.203z" fill="#595959"/></g><g><path d="m27.703 114.577h28.285v28.285c0 11.158-9.045 20.203-20.203 20.203h-28.285v-28.285c0-11.157 9.045-20.203 20.203-20.203z" fill="#818181"/></g><g><path d="m27.703 468.134h28.285v-28.284c0-11.158-9.045-20.203-20.203-20.203h-28.285v28.285c0 11.157 9.045 20.202 20.203 20.202z" fill="#818181"/></g><g><path d="m484.297 468.134h-28.285v-28.284c0-11.158 9.045-20.203 20.203-20.203h28.285v28.285c0 11.157-9.045 20.202-20.203 20.202z" fill="#818181"/></g><g><path d="m484.297 468.134h-24.244c11.158 0 20.203-9.045 20.203-20.203v-28.285h24.244v28.285c0 11.158-9.045 20.203-20.203 20.203z" fill="#595959"/></g><g><path d="m378.23 274.183h48.488v34.346h-48.488z" fill="#dfdfdf"/></g><g><path d="m85.283 274.183h48.488v34.346h-48.488z" fill="#dfdfdf" transform="matrix(-1 0 0 -1 219.053 582.711)"/></g><g><path d="m215.594 187.309h80.813v40.407h-80.813z" fill="#818181"/></g><g><path d="m484.296 107.077h-132.912v-43.008c0-15.276-12.428-27.704-27.704-27.704h-135.361c-15.276 0-27.704 12.428-27.704 27.704v43.008h-132.911c-15.276 0-27.704 12.428-27.704 27.703v313.15c0 15.276 12.428 27.704 27.704 27.704h456.593c15.276 0 27.704-12.428 27.704-27.704v-205.93c0-4.142-3.358-7.5-7.5-7.5s-7.5 3.358-7.5 7.5v170.146h-17.325v-241.581h17.324v36.403c0 4.142 3.358 7.5 7.5 7.5s7.5-3.358 7.5-7.5v-72.188c0-15.275-12.428-27.703-27.704-27.703zm-33.256 321.232h-23.894v-112.302c3.941-.223 7.071-3.481 7.071-7.478v-34.345c0-3.997-3.13-7.255-7.071-7.478v-112.304h23.894c2.767 6.012 7.622 10.867 13.634 13.635v246.638c-6.011 2.767-10.867 7.622-13.634 13.634zm-411.215-63.738c-4.142 0-7.5 3.358-7.5 7.5v40.075h-17.325v-241.581h17.325v166.462c0 4.142 3.358 7.5 7.5 7.5s7.5-3.358 7.5-7.5v-168.99c6.012-2.767 10.867-7.623 13.635-13.635h23.894v112.302c-3.941.223-7.071 3.481-7.071 7.478v34.345c0 3.997 3.13 7.255 7.071 7.478v112.302h-23.894c-2.767-6.012-7.623-10.867-13.635-13.635v-42.603c0-4.14-3.358-7.498-7.5-7.498zm337.976-242.494v17.325h-243.602v-17.325zm-285.018 178.951v-19.345h33.488v19.345zm41.416 14.979c3.941-.223 7.071-3.481 7.071-7.478v-34.345c0-3.997-3.13-7.255-7.071-7.478v-112.304h243.602v112.302c-3.941.223-7.071 3.481-7.071 7.478v34.345c0 3.997 3.13 7.255 7.071 7.478v112.302h-243.602zm251.53-14.979v-19.345h33.488v19.345zm26.417-34.345h-19.345v-144.606h19.345zm-292.947 0h-19.345v-144.606h19.345zm-34.345-127.281h-21.366v-17.325h21.366zm-21.366 303.907h21.366v17.325h-21.366zm36.366-127.281h19.345v144.606h-19.345zm34.345 127.281h243.602v17.325h-243.602zm258.602-127.281h19.345v144.606h-19.345zm34.345 127.281h21.366v17.325h-21.366zm21.366-303.907h-21.366v-17.325h21.366zm-272.896-75.333c0-7.005 5.699-12.704 12.704-12.704h135.361c7.005 0 12.704 5.699 12.704 12.704v43.008h-17.325v-30.886c0-4.142-3.358-7.5-7.5-7.5h-14.88c-4.142 0-7.5 3.358-7.5 7.5s3.358 7.5 7.5 7.5h7.38v23.386h-96.118v-23.386h53.702c4.142 0 7.5-3.358 7.5-7.5s-3.358-7.5-7.5-7.5h-61.202c-4.142 0-7.5 3.358-7.5 7.5v30.886h-17.325v-43.008zm-147.912 58.008h20.784v20.785c0 7.004-5.699 12.703-12.703 12.703h-20.785v-20.785c0-7.004 5.699-12.703 12.704-12.703zm-12.704 325.854v-20.784h20.785c7.004 0 12.703 5.699 12.703 12.703v20.785h-20.784c-7.005-.001-12.704-5.699-12.704-12.704zm482 0c0 7.005-5.699 12.704-12.704 12.704h-20.784v-20.785c0-7.004 5.699-12.703 12.703-12.703h20.785zm-20.785-292.366c-7.004 0-12.703-5.699-12.703-12.703v-20.785h20.784c7.005 0 12.704 5.699 12.704 12.703v20.785z"/><path d="m296.406 179.809h-80.813c-4.142 0-7.5 3.358-7.5 7.5v40.406c0 4.142 3.358 7.5 7.5 7.5h80.813c4.142 0 7.5-3.358 7.5-7.5v-40.406c0-4.142-3.358-7.5-7.5-7.5zm-7.5 40.406h-65.813v-25.406h65.813z"/></g></g></svg>