<svg height="512pt" viewBox="0 -10 512.0002 512" width="512pt" xmlns="http://www.w3.org/2000/svg"><path d="m245.722656 398.035156c-84.117187 0-152.304687-68.191406-152.304687-152.308594 0-84.117187 68.1875-152.308593 152.304687-152.308593zm0 0" fill="#f6cb43"/><path d="m245.722656 93.414062v304.621094c-47.679687 0-90.25-21.917968-118.183594-56.230468 49.511719-25.140626 83.433594-76.550782 83.433594-135.878907 0-36.429687-12.792968-69.871093-34.132812-96.082031 20.679687-10.507812 44.089844-16.429688 68.882812-16.429688zm0 0" fill="#fab03c"/><path d="m273.898438 472.09375c0 6.546875 5.308593 11.855469 11.855468 11.855469s11.855469-5.304688 11.855469-11.855469v-20.664062l24.339844 17.820312c2.113281 1.542969 4.566406 2.289062 6.996093 2.289062 3.648438 0 7.25-1.679687 9.574219-4.851562 3.867188-5.285156 2.71875-12.703125-2.5625-16.570312l-38.347656-28.074219v-12.972657h6.574219c6.546875 0 11.855468-5.308593 11.855468-11.855468s-5.308593-11.855469-11.855468-11.855469h-6.574219v-63.316406l34.085937 24.957031c3.792969 2.773438 8.863282 3.046875 12.933594.699219 4.066406-2.347657 6.363282-6.878907 5.855469-11.546875l-4.566406-42 54.832031 31.65625-3.289062 5.695312c-3.273438 5.671875-1.328126 12.921875 4.339843 16.195313 1.867188 1.078125 3.90625 1.589843 5.917969 1.589843 4.09375 0 8.082031-2.125 10.277344-5.929687l3.289062-5.695313 11.238282 6.488282 5.136718 47.246094c.660156 6.074218 5.796875 10.574218 11.769532 10.574218.429687 0 .859374-.023437 1.296874-.070312 6.507813-.707032 11.210938-6.558594 10.503907-13.066406l-3.261719-29.992188 17.898438 10.332031c1.867187 1.078125 3.90625 1.589844 5.914062 1.589844 4.097656 0 8.085938-2.125 10.28125-5.929687 3.273438-5.667969 1.328125-12.917969-4.339844-16.191407l-17.898437-10.335937 27.605469-12.167969c5.988281-2.644531 8.703124-9.640625 6.0625-15.632813-2.640626-5.992187-9.644532-8.703124-15.628907-6.0625l-43.484375 19.171876-11.238281-6.484376 3.285156-5.695312c3.277344-5.671875 1.332031-12.921875-4.335937-16.195312-5.675782-3.273438-12.921875-1.332032-16.195313 4.339843l-3.289062 5.695313-54.832031-31.660156 38.65625-17.042969c4.296874-1.898438 7.070312-6.152344 7.070312-10.847657 0-4.699218-2.773438-8.953124-7.070312-10.847656l-38.65625-17.046875 54.832031-31.65625 3.289062 5.695313c2.195313 3.804687 6.179688 5.929687 10.277344 5.929687 2.011719 0 4.050781-.511719 5.914063-1.589843 5.671874-3.273438 7.613281-10.523438 4.339843-16.195313l-3.289062-5.695313 11.238281-6.488281 43.488281 19.175781c1.554688.683594 3.175781 1.011719 4.777344 1.011719 4.550781 0 8.894531-2.640625 10.851563-7.078125 2.640624-5.988281-.074219-12.988281-6.066407-15.628906l-27.601562-12.171875 17.898437-10.332031c5.667969-3.273438 7.609375-10.523438 4.335938-16.195313-3.273438-5.667969-10.519532-7.613281-16.191406-4.335937l-17.898438 10.332031 3.261719-29.992187c.707031-6.507813-3.996094-12.359376-10.503907-13.066407-6.503906-.714843-12.363281 3.992188-13.066406 10.503907l-5.136718 47.246093-11.238282 6.488281-3.289062-5.695312c-3.273438-5.667969-10.527344-7.613281-16.195313-4.339844-5.671875 3.273438-7.613281 10.523438-4.339843 16.195313l3.289062 5.695312-54.832031 31.65625 4.566406-42c.507813-4.667969-1.789063-9.199219-5.859375-11.546875-4.066406-2.347656-9.140625-2.074218-12.929688.699219l-34.089843 24.957031v-63.316406h6.578125c6.546875 0 11.855468-5.308594 11.855468-11.855469s-5.308593-11.855469-11.855468-11.855469h-6.578125v-12.976562l38.347656-28.074219c5.285156-3.867187 6.433594-11.285156 2.566406-16.566406-3.871093-5.285156-11.285156-6.429687-16.570312-2.5625l-24.34375 17.820313v-20.667969c0-6.546875-5.308594-11.855469-11.855469-11.855469s-11.851562 5.308594-11.851562 11.855469zm88.363281-226.367188-29.9375 13.199219-22.863281-13.199219 22.863281-13.199218zm-38.253907-66.261718-3.535156 32.527344-22.863281 13.199218v-26.398437zm-50.109374 86.792968v26.402344m50.109374 19.324219-26.398437-19.324219v-26.402344l22.863281 13.203126zm0 0" fill="#c4e1e8"/><path d="m245.722656 85.917969c-31.835937 0-62.585937 9.34375-88.929687 27.019531-3.441407 2.308594-4.359375 6.964844-2.050781 10.40625 2.308593 3.441406 6.964843 4.355469 10.40625 2.050781 21.789062-14.621093 46.910156-22.949219 73.074218-24.285156v232.285156c0 4.144531 3.359375 7.5 7.5 7.5 4.144532 0 7.5-3.355469 7.5-7.5v-239.976562c0-4.140625-3.355468-7.5-7.5-7.5zm0 0"/><path d="m245.722656 358.558594c-4.140625 0-7.5 3.355468-7.5 7.5v24.28125c-76.375-3.914063-137.304687-67.28125-137.304687-144.613282 0-37.5625 14.324219-73.167968 40.332031-100.265624 2.867188-2.988282 2.769531-7.734376-.21875-10.601563-2.988281-2.871094-7.734375-2.773437-10.601562.214844-28.707032 29.902343-44.511719 69.199219-44.511719 110.652343 0 88.117188 71.6875 159.808594 159.808593 159.808594 4.140626 0 7.5-3.359375 7.5-7.5v-31.976562c-.003906-4.144532-3.359374-7.5-7.503906-7.5zm0 0"/><path d="m245.722656 0c-4.140625 0-7.5 3.359375-7.5 7.5v32.804688c0 4.144531 3.359375 7.5 7.5 7.5 4.144532 0 7.5-3.355469 7.5-7.5v-32.804688c0-4.140625-3.355468-7.5-7.5-7.5zm0 0"/><path d="m245.722656 443.644531c-4.140625 0-7.5 3.359375-7.5 7.5v32.804688c0 4.144531 3.359375 7.5 7.5 7.5 4.144532 0 7.5-3.355469 7.5-7.5v-32.804688c0-4.140625-3.355468-7.5-7.5-7.5zm0 0"/><path d="m136.519531 71.578125c1.390625 2.40625 3.910157 3.75 6.503907 3.75 1.269531 0 2.558593-.324219 3.742187-1.007813 3.585937-2.070312 4.816406-6.65625 2.746094-10.242187l-16.402344-28.410156c-2.074219-3.585938-6.660156-4.816407-10.246094-2.746094-3.585937 2.070313-4.816406 6.660156-2.746093 10.246094zm0 0"/><path d="m71.574219 136.519531-28.40625-16.402343c-3.589844-2.070313-8.175781-.839844-10.246094 2.746093-2.070313 3.585938-.84375 8.175781 2.746094 10.246094l28.40625 16.402344c1.183593.679687 2.472656 1.003906 3.746093 1.003906 2.589844 0 5.109376-1.34375 6.5-3.75 2.070313-3.585937.84375-8.175781-2.746093-10.246094zm0 0"/><path d="m47.804688 245.726562c0-4.144531-3.359376-7.5-7.5-7.5h-32.804688c-4.140625 0-7.5 3.355469-7.5 7.5 0 4.140626 3.359375 7.5 7.5 7.5h32.804688c4.140624 0 7.5-3.359374 7.5-7.5zm0 0"/><path d="m64.074219 341.941406-28.40625 16.402344c-3.589844 2.070312-4.816407 6.65625-2.746094 10.246094 1.386719 2.40625 3.910156 3.75 6.5 3.75 1.273437 0 2.5625-.324219 3.746094-1.007813l28.40625-16.402343c3.589843-2.070313 4.816406-6.65625 2.746093-10.242188-2.070312-3.589844-6.65625-4.820312-10.246093-2.746094zm0 0"/><path d="m146.765625 417.128906c-3.589844-2.074218-8.175781-.84375-10.246094 2.746094l-16.402343 28.410156c-2.070313 3.585938-.839844 8.171875 2.746093 10.242188 1.179688.683594 2.46875 1.007812 3.742188 1.007812 2.59375 0 5.113281-1.34375 6.503906-3.75l16.402344-28.410156c2.070312-3.585938.839843-8.175781-2.746094-10.246094zm0 0"/><path d="m290.105469 292.660156c0 2.390625 1.140625 4.636719 3.070312 6.050782l26.402344 19.324218c1.3125.960938 2.867187 1.449219 4.429687 1.449219 1.292969 0 2.585938-.332031 3.75-1.003906 2.574219-1.488281 4.027344-4.351563 3.707032-7.304688l-3.539063-32.527343c-.257812-2.375-1.632812-4.488282-3.703125-5.683594l-22.863281-13.199219c-2.320313-1.339844-5.179687-1.339844-7.5 0s-3.75 3.8125-3.75 6.492187v26.402344zm15-13.410156 8.320312 4.800781 1.285157 11.835938-9.605469-7.035157zm0 0"/><path d="m499.644531 297.246094c-4.824219-1.871094-10.082031-1.75-14.808593.335937l-40.003907 17.640625-1.464843-.847656c2.214843-4.289062 2.746093-9.183594 1.488281-13.878906-1.335938-4.992188-4.539063-9.167969-9.019531-11.75-4.476563-2.585938-9.691407-3.273438-14.6875-1.933594-4.695313 1.257812-8.664063 4.164062-11.269532 8.226562l-35.550781-20.523437 25.125-11.082031c7.015625-3.09375 11.546875-10.042969 11.546875-17.710938 0-7.664062-4.53125-14.613281-11.546875-17.707031l-25.125-11.082031 35.550781-20.523438c3.542969 5.507813 9.703125 8.890625 16.292969 8.890625 3.382813 0 6.726563-.898437 9.664063-2.59375 4.480468-2.585937 7.683593-6.761719 9.019531-11.753906 1.257812-4.695313.726562-9.589844-1.488281-13.878906l1.464843-.84375 40.003907 17.640625c2.484374 1.089844 5.105468 1.644531 7.800781 1.644531 7.667969 0 14.621093-4.53125 17.71875-11.550781 4.304687-9.765625-.140625-21.210938-9.902344-25.515625l-14.078125-6.207031 5.09375-2.9375c4.476562-2.585938 7.679688-6.761719 9.019531-11.753907 1.335938-4.996093.652344-10.210937-1.933593-14.6875-5.339844-9.242187-17.199219-12.417969-26.441407-7.085937l-5.089843 2.941406 1.660156-15.292969c1.152344-10.609375-6.539063-20.179687-17.140625-21.332031-5.136719-.558594-10.1875.910156-14.21875 4.148438-4.035157 3.242187-6.566407 7.859374-7.121094 13l-4.726563 43.460937-1.46875.847656c-2.605468-4.0625-6.574218-6.96875-11.269531-8.226562-4.996093-1.339844-10.210937-.652344-14.6875 1.933593-4.476562 2.582032-7.679687 6.757813-9.019531 11.75-1.257812 4.695313-.726562 9.589844 1.492188 13.878907l-35.550782 20.523437 2.96875-27.300781c.828125-7.621094-2.925781-15.023437-9.566406-18.855469-6.636719-3.832031-14.925781-3.382812-21.109375 1.144532l-22.160156 16.222656v-41.050782c10.246093-.484374 18.433593-8.972656 18.433593-19.335937s-8.1875-18.847656-18.433593-19.332031v-1.691406l35.28125-25.828126c8.609375-6.300781 10.488281-18.4375 4.183593-27.046874-6.304687-8.613282-18.4375-10.488282-27.050781-4.1875l-12.414062 9.085937v-5.878906c0-10.671875-8.683594-19.355469-19.355469-19.355469s-19.351562 8.683594-19.351562 19.355469v78.207031c0 4.140625 3.355468 7.5 7.5 7.5 4.140624 0 7.5-3.359375 7.5-7.5v-78.207031c0-2.398438 1.953124-4.355469 4.351562-4.355469 2.402344 0 4.355469 1.957031 4.355469 4.355469v20.667969c0 2.824218 1.589843 5.410156 4.109375 6.6875 2.519531 1.28125 5.542968 1.03125 7.820312-.636719l24.34375-17.820313c1.9375-1.417968 4.671875-.996094 6.085938.941406 1.417968 1.9375.996094 4.667969-.941406 6.085938l-38.347657 28.070312c-1.929687 1.414063-3.070312 3.664063-3.070312 6.054688v12.972656c0 4.144532 3.359375 7.5 7.5 7.5h6.578125c2.398437 0 4.351562 1.957032 4.351562 4.355469 0 2.402344-1.953125 4.355469-4.351562 4.355469h-6.578125c-4.140625 0-7.5 3.359375-7.5 7.5v63.316406c0 2.824219 1.585937 5.410156 4.105469 6.6875 2.523437 1.28125 5.546874 1.035156 7.824218-.636719l34.089844-24.953125c1.390625-1.019531 3.253906-1.121094 4.75-.257812 1.492188.863281 2.339844 2.527344 2.152344 4.242187l-4.566406 42c-.304688 2.808594.992187 5.550781 3.359374 7.09375 2.367188 1.542969 5.398438 1.625 7.847657.210938l54.832031-31.65625c1.722656-.996094 2.976562-2.632813 3.496094-4.554688.511718-1.921875.242187-3.96875-.75-5.691406l-3.289063-5.695313c-.582031-1.007812-.738281-2.183593-.4375-3.304687.300781-1.125 1.023438-2.0625 2.03125-2.644531 1.003907-.582032 2.179688-.734375 3.304688-.4375 1.121093.300781 2.0625 1.023437 2.644531 2.03125l3.289062 5.695312c2.070313 3.585938 6.65625 4.816406 10.242188 2.746094l11.238281-6.488281c2.070313-1.195313 3.449219-3.308594 3.707031-5.6875l5.136719-47.246094c.125-1.15625.695313-2.195313 1.601563-2.921875.90625-.730469 2.039062-1.0625 3.199218-.933594 2.386719.257813 4.117188 2.410156 3.859376 4.796875l-3.261719 29.992188c-.304688 2.8125.992187 5.550781 3.359375 7.09375 2.367187 1.542969 5.398437 1.625 7.847656.214843l17.894531-10.335937c2.078125-1.199219 4.75-.484375 5.949219 1.59375.582031 1.007813.738281 2.183594.4375 3.304687-.300781 1.125-1.023438 2.0625-2.03125 2.644532l-17.894531 10.335937c-2.449219 1.410157-3.894531 4.078125-3.742188 6.898438.15625 2.820312 1.878907 5.316406 4.464844 6.457031l27.605469 12.171875c2.195312.96875 3.195312 3.546875 2.226562 5.742187-.695312 1.582032-2.261718 2.601563-3.992187 2.601563-.597657 0-1.1875-.125-1.75-.371094l-43.484375-19.175781c-2.1875-.964844-4.703125-.828125-6.777344.367188l-11.238281 6.488281c-3.585938 2.070312-4.8125 6.660156-2.746094 10.246093l3.289063 5.695313c.582031 1.007813.738281 2.179687.4375 3.304687-.300782 1.125-1.023438 2.0625-2.03125 2.644532-.671876.390625-1.402344.585937-2.164063.585937-1.582031 0-2.996094-.816406-3.785156-2.179687l-3.289063-5.695313c-2.070312-3.585937-6.65625-4.816406-10.246094-2.746093l-54.832031 31.660156c-2.445312 1.410156-3.890625 4.078125-3.738281 6.898437.152344 2.820313 1.878906 5.316407 4.460938 6.457031l38.660156 17.046876c1.578125.695312 2.597656 2.257812 2.597656 3.984374 0 1.722657-1.019531 3.289063-2.597656 3.984376l-38.65625 17.042968c-2.585938 1.140625-4.3125 3.636719-4.464844 6.457032-.152344 2.824218 1.292969 5.488281 3.738281 6.902343l54.835938 31.660157c3.585937 2.070312 8.171875.839843 10.242187-2.746094l3.292969-5.699219c.578125-1.003906 1.519531-1.726563 2.640625-2.023437 1.125-.304688 2.296875-.148438 3.308594.433593 1.003906.582031 1.726562 1.519531 2.027344 2.644531.300781 1.125.144531 2.296876-.4375 3.304688l-3.285157 5.695312c-2.070312 3.589844-.84375 8.175782 2.746094 10.246094l11.238281 6.488282c2.070313 1.195312 4.585938 1.332031 6.773438.367187l43.488281-19.175781c1.0625-.46875 2.246094-.496094 3.328125-.074219 1.085938.421875 1.941406 1.238281 2.410156 2.300781.96875 2.199219-.03125 4.777344-2.226562 5.746094l-27.605469 12.167969c-2.585937 1.140625-4.308594 3.636719-4.460937 6.457031-.152344 2.824219 1.289062 5.488281 3.738281 6.902344l17.898437 10.332031c1.003906.582031 1.726563 1.523437 2.027344 2.644531.300781 1.125.144531 2.296875-.433594 3.304688-.777344 1.34375-2.226562 2.179687-3.785156 2.179687-.761719 0-1.492188-.195312-2.164062-.585937l-17.898438-10.332032c-2.445312-1.414062-5.480469-1.328124-7.847656.210938-2.367188 1.542969-3.664063 4.285156-3.359375 7.09375l3.261719 29.992188c.257812 2.386718-1.472657 4.542968-3.859376 4.800781-2.4375.273437-4.542968-1.484375-4.796874-3.859375l-5.136719-47.246094c-.261719-2.375-1.636719-4.488281-3.707031-5.683594l-11.238282-6.488281c-3.589844-2.074219-8.175781-.84375-10.246094 2.746094l-3.289062 5.695312c-.777344 1.34375-2.222656 2.179688-3.78125 2.179688-.765625 0-1.496094-.199219-2.167969-.585938-1.007812-.582031-1.726562-1.523437-2.027343-2.644531-.300782-1.125-.148438-2.296875.433593-3.304688l3.289063-5.695312c.996094-1.722656 1.265625-3.769531.75-5.691406s-1.773438-3.558594-3.496094-4.554688l-54.832031-31.65625c-2.445313-1.414062-5.480469-1.332031-7.847657.210938-2.367187 1.542968-3.664062 4.285156-3.359374 7.09375l4.566406 42c.1875 1.714844-.65625 3.378906-2.148438 4.242187-1.492187.859375-3.359375.757813-4.75-.257812l-34.089844-24.957031c-2.28125-1.667969-5.304687-1.914063-7.824218-.636719-2.519532 1.28125-4.105469 3.863281-4.105469 6.691406v63.316406c0 4.140625 3.355469 7.5 7.5 7.5h6.578125c2.398438 0 4.351562 1.953125 4.351562 4.351563 0 2.402344-1.953124 4.355468-4.351562 4.355468h-6.578125c-4.144531 0-7.5 3.359376-7.5 7.5v12.976563c0 2.390625 1.140625 4.640625 3.070313 6.050781l38.347656 28.074219c1.9375 1.417969 2.359375 4.148437.941406 6.085937-.828125 1.132813-2.113281 1.78125-3.523438 1.78125-.644531 0-1.613281-.144531-2.5625-.839843l-24.34375-17.820313c-2.28125-1.667968-5.304687-1.917968-7.824218-.636718-2.519532 1.277343-4.105469 3.863281-4.105469 6.6875v20.667968c0 2.398438-1.953125 4.351563-4.355469 4.351563s-4.355468-1.953125-4.355468-4.351563v-342.191406c0-4.144531-3.359376-7.5-7.5-7.5-4.140626 0-7.5 3.355469-7.5 7.5v342.1875c0 10.671875 8.683593 19.355469 19.355468 19.355469s19.355469-8.683594 19.355469-19.355469v-5.878906l12.414063 9.085937c3.339843 2.445313 7.289062 3.738281 11.421874 3.738281 6.152344 0 11.996094-2.960937 15.625-7.921874 6.304688-8.613282 4.425782-20.746094-4.183593-27.050782l-35.277344-25.824218v-1.695313c10.242187-.480469 18.429687-8.96875 18.429687-19.332031 0-10.363282-8.1875-18.847656-18.429687-19.332032v-41.054687l22.15625 16.222656c6.1875 4.527344 14.472656 4.976563 21.109375 1.144531 6.640625-3.832031 10.394531-11.234374 9.566406-18.855468l-2.96875-27.300782 35.550782 20.527344c-2.214844 4.289063-2.75 9.179688-1.488282 13.875 1.335938 4.996094 4.539063 9.167969 9.015625 11.753906 2.941407 1.695313 6.285157 2.59375 9.667969 2.59375 6.589844 0 12.75-3.382812 16.292969-8.890624l1.464843.847656 4.726563 43.460937c1.070313 9.84375 9.335937 17.265625 19.226563 17.265625.699218 0 1.410156-.039062 2.109374-.113281 10.609376-1.15625 18.300782-10.726563 17.148438-21.335937l-1.664062-15.292969 5.09375 2.941406c2.941406 1.695313 6.28125 2.59375 9.664062 2.59375 6.902344 0 13.328125-3.707031 16.773438-9.679687 2.585937-4.476563 3.273437-9.691407 1.933593-14.6875-1.335937-4.992188-4.539062-9.167969-9.015625-11.75l-5.09375-2.941407 14.074219-6.207031c9.765625-4.304688 14.207031-15.75 9.902344-25.519531-2.085938-4.730469-5.890625-8.363281-10.710938-10.234375zm0 0"/><path d="m327.757812 172.972656c-2.574218-1.488281-5.78125-1.316406-8.179687.441406l-26.402344 19.324219c-1.929687 1.414063-3.066406 3.664063-3.066406 6.054688v26.398437c0 2.679688 1.429687 5.15625 3.75 6.496094 1.160156.667969 2.453125 1.003906 3.75 1.003906 1.292969 0 2.589844-.335937 3.75-1.003906l22.863281-13.199219c2.070313-1.195312 3.445313-3.308593 3.703125-5.6875l3.539063-32.523437c.320312-2.953125-1.132813-5.820313-3.707032-7.304688zm-14.332031 34.425782-8.316406 4.804687v-9.605469l9.601563-7.03125zm0 0"/><path d="m305.710938 239.230469c-2.320313 1.339843-3.75 3.816406-3.75 6.496093 0 2.679688 1.429687 5.152344 3.75 6.492188l22.863281 13.203125c1.15625.664063 2.453125 1.003906 3.75 1.003906 1.027343 0 2.058593-.210937 3.027343-.636719l29.9375-13.203124c2.71875-1.199219 4.472657-3.890626 4.472657-6.859376 0-2.972656-1.753907-5.664062-4.472657-6.863281l-29.9375-13.199219c-2.191406-.964843-4.707031-.828124-6.777343.367188zm27.070312 1.691406 10.890625 4.804687-10.890625 4.804688-8.320312-4.804688zm0 0"/><path d="m383.671875 379.351562h-.101563c-.011718 0-.023437 0-.035156 0-4.125 0-7.480468 3.332032-7.5 7.464844-.019531 4.140625 3.320313 7.515625 7.464844 7.535156h.101562.039063c4.125 0 7.476563-3.335937 7.496094-7.464843.023437-4.144531-3.320313-7.515625-7.464844-7.535157zm0 0"/><path d="m343.589844 77.953125c-.019532 4.144531 3.320312 7.515625 7.464844 7.535156h.101562.039062c4.125 0 7.476563-3.332031 7.496094-7.464843.023438-4.140626-3.320312-7.515626-7.464844-7.535157h-.101562c-.011719 0-.023438 0-.035156 0-4.125 0-7.480469 3.335938-7.5 7.464844zm0 0"/><path d="m399.5 115.488281h.101562.039063c4.125 0 7.476563-3.332031 7.496094-7.464843.023437-4.140626-3.320313-7.515626-7.464844-7.535157h-.101563c-.011718 0-.023437 0-.035156 0-4.125 0-7.480468 3.335938-7.5 7.464844-.019531 4.144531 3.320313 7.519531 7.464844 7.535156zm0 0"/><path d="m450.136719 238.226562c-4.140625 0-7.5 3.355469-7.5 7.5 0 4.140626 3.359375 7.5 7.5 7.5h.105469c4.140624 0 7.5-3.359374 7.5-7.5 0-4.144531-3.359376-7.5-7.5-7.5zm0 0"/><path d="m379.214844 130.917969h.105468.035157c4.125 0 7.480469-3.332031 7.5-7.464844.019531-4.140625-3.324219-7.515625-7.464844-7.535156h-.105469c-.011718 0-.023437 0-.035156 0-4.125 0-7.480469 3.335937-7.5 7.464843-.019531 4.144532 3.324219 7.515626 7.464844 7.535157zm0 0"/><path d="m369.304688 401.847656h-.105469c-4.140625 0-7.5 3.359375-7.5 7.5 0 4.144532 3.359375 7.5 7.5 7.5h.105469c4.140624 0 7.5-3.355468 7.5-7.5 0-4.140625-3.359376-7.5-7.5-7.5zm0 0"/></svg>