<svg id="Capa_1" enable-background="new 0 0 512 512" height="512" viewBox="0 0 512 512" width="512" xmlns="http://www.w3.org/2000/svg"><g><g><path d="m256 391.362h40.659s121.977-129.301 121.977-222.236c0-89.264-72.815-161.626-162.636-161.626s-162.636 72.362-162.636 161.626c0 92.935 121.977 222.236 121.977 222.236z" fill="#e28086"/></g><g><path d="m396.427 87.564c.656 6.559.995 13.211.995 19.942 0 109.348-88.644 197.992-197.992 197.992-19.846 0-39.005-2.933-57.081-8.367 33.918 52.805 72.991 94.231 72.991 94.231h40.66 40.659s121.977-129.301 121.977-222.236c0-29.751-8.097-57.619-22.209-81.562z" fill="#dd636e"/></g><g><path d="m256 7.5c-61.369 0-111.118 72.362-111.118 161.626 0 92.935 83.338 222.236 83.338 222.236s7.639 0 15.152 0c-.002-.005-37.881-129.302-37.881-222.235.001-89.264 22.614-161.627 50.509-161.627s50.508 72.363 50.508 161.626c0 92.933-37.879 222.23-37.881 222.235h15.152s83.338-129.301 83.338-222.236c.001-89.263-49.748-161.625-111.117-161.625z" fill="#f9f6f9"/></g><g><g><path d="m199.431 305.498c-5.966 0-11.867-.279-17.699-.796 22.311 49.139 46.488 86.66 46.488 86.66s7.639 0 15.152 0c-.001-.003-11.066-37.782-21.236-87.167-7.451.85-15.025 1.303-22.705 1.303z" fill="#dfdde2"/></g><g><path d="m294.332 281.307c-11.076 60.111-25.704 110.051-25.705 110.055h15.152s55.025-85.371 75.652-167.235c-17.174 23.523-39.403 43.119-65.099 57.18z" fill="#dfdde2"/></g></g><g><path d="m286.305 504.5h-60.61c-5.579 0-10.102-4.523-10.102-10.102v-52.528h80.813v52.528c0 5.579-4.522 10.102-10.101 10.102z" fill="#b78b7a"/></g><g><path d="m274.183 441.87v52.528c0 5.579-4.523 10.102-10.102 10.102h22.224c5.579 0 10.102-4.523 10.102-10.102v-52.528z" fill="#aa7a63"/></g><g><g><path d="m461.014 417.65c-4.986-14.135-18.455-24.268-34.297-24.268s-29.31 10.133-34.297 24.268c-12.943.505-23.283 11.152-23.283 24.22 0 13.39 10.854 24.244 24.244 24.244h66.671c13.39 0 24.244-10.854 24.244-24.244.001-13.067-10.339-23.714-23.282-24.22z" fill="#ddeafb"/></g><g><path d="m461.014 417.65c-3.303-9.365-10.332-16.969-19.305-21.038 2.061 5.78 3.191 12.001 3.191 18.488 0 23.08-14.208 42.83-34.349 51.013h49.502c13.39 0 24.244-10.854 24.244-24.244 0-13.066-10.34-23.713-23.283-24.219z" fill="#9dc6fb"/></g></g><g><g><path d="m119.579 393.406c-4.986-14.135-18.455-24.268-34.297-24.268s-29.31 10.133-34.297 24.268c-12.943.505-23.283 11.152-23.283 24.22 0 13.39 10.854 24.244 24.244 24.244h66.671c13.39 0 24.244-10.854 24.244-24.244.001-13.067-10.339-23.714-23.282-24.22z" fill="#ddeafb"/></g><g><path d="m119.579 393.406c-3.303-9.365-10.332-16.969-19.305-21.038 2.061 5.78 3.191 12.001 3.191 18.488 0 23.08-14.208 42.83-34.349 51.013h49.502c13.39 0 24.244-10.854 24.244-24.244 0-13.066-10.34-23.713-23.283-24.219z" fill="#9dc6fb"/></g></g><g><path d="m466.248 410.731c-7.238-15.037-22.574-24.849-39.53-24.849s-32.293 9.812-39.531 24.849c-14.667 2.872-25.548 15.711-25.548 31.139 0 17.503 14.24 31.744 31.743 31.744h66.671c17.504 0 31.744-14.24 31.744-31.744 0-15.428-10.881-28.267-25.549-31.139zm-6.195 47.883h-66.671c-9.232 0-16.743-7.511-16.743-16.744 0-9.027 7.061-16.374 16.075-16.726 3.07-.12 5.758-2.101 6.78-4.999 4.064-11.522 15.005-19.263 27.224-19.263s23.158 7.741 27.223 19.263c1.022 2.898 3.71 4.879 6.78 4.999 9.015.352 16.076 7.699 16.076 16.726 0 9.233-7.512 16.744-16.744 16.744z"/><path d="m124.813 386.487c-7.238-15.037-22.575-24.849-39.531-24.849-16.957 0-32.293 9.812-39.531 24.849-14.667 2.872-25.548 15.711-25.548 31.139 0 17.504 14.24 31.744 31.744 31.744h66.67c17.504 0 31.744-14.24 31.744-31.744.001-15.428-10.88-28.268-25.548-31.139zm-6.195 47.883h-66.67c-9.233 0-16.744-7.511-16.744-16.744 0-9.027 7.061-16.374 16.075-16.726 3.071-.12 5.758-2.101 6.78-4.999 4.064-11.522 15.005-19.263 27.224-19.263s23.159 7.741 27.224 19.263c1.022 2.898 3.709 4.879 6.78 4.999 9.014.352 16.075 7.699 16.075 16.726 0 9.233-7.511 16.744-16.744 16.744z"/><path d="m426.136 169.126c0-93.256-76.323-169.126-170.136-169.126s-170.136 75.87-170.136 169.126c0 40.1 20.97 90.649 62.327 150.245 26.285 37.877 52.896 67.557 59.903 75.2v39.799h-2.602c-4.142 0-7.5 3.358-7.5 7.5s3.358 7.5 7.5 7.5h2.602v45.028c0 9.706 7.896 17.602 17.602 17.602h60.609c9.705 0 17.602-7.896 17.602-17.602v-45.028h2.602c4.143 0 7.5-3.358 7.5-7.5s-3.357-7.5-7.5-7.5h-2.602v-39.791c4.984-5.42 19.748-21.819 37.574-44.821 2.538-3.274 1.94-7.985-1.333-10.522-3.274-2.536-7.985-1.941-10.522 1.334-9.572 12.35-18.334 22.854-25.069 30.664 7.764-13.592 17.751-32.007 27.669-52.925 28.13-59.328 42.393-109.52 42.393-149.182 0-44.674-12.027-86.771-33.865-118.536-5.029-7.315-10.447-13.887-16.186-19.692 51.243 25.192 86.568 77.684 86.568 138.227 0 36.86-21.043 86.455-60.854 143.422-2.373 3.396-1.544 8.071 1.852 10.444 3.395 2.375 8.071 1.544 10.443-1.852 42.174-60.349 63.559-111.494 63.559-152.014zm-325.272 0c0-60.544 35.326-113.037 86.57-138.228-5.739 5.804-11.156 12.376-16.186 19.692-21.838 31.765-33.865 73.862-33.865 118.536 0 25.776 6.177 56.489 18.359 91.285 1.368 3.91 5.648 5.969 9.557 4.601 3.91-1.369 5.969-5.647 4.601-9.557-11.623-33.2-17.516-62.245-17.516-86.329 0-69.771 31.333-128.853 74.166-147.774-4.97 8.165-9.472 18.608-13.422 31.25-9.76 31.231-15.135 72.614-15.135 116.524 0 79.358 26.697 182.858 35.473 214.736h-1.096c-7.097-11.46-30.371-50.218-49.881-96.054-1.623-3.811-6.026-5.584-9.838-3.963-3.811 1.622-5.585 6.027-3.963 9.838 13.18 30.964 28.044 58.768 38.71 77.456-31.297-36.398-106.534-131.268-106.534-202.013zm188.042 229.736v35.508h-65.813v-35.508zm0 95.536c0 1.435-1.167 2.602-2.602 2.602h-60.609c-1.435 0-2.602-1.167-2.602-2.602v-45.028h65.813zm70.712-325.272c0 81.363-67.015 193.746-79.99 214.736h-1.092c8.776-31.878 35.472-135.378 35.472-214.736 0-13.035-.479-26.012-1.426-38.573-.311-4.13-3.905-7.221-8.042-6.916-4.13.311-7.227 3.912-6.915 8.042.917 12.188 1.383 24.787 1.383 37.447 0 80.153-29.01 189.397-36.054 214.736h-13.908c-7.044-25.339-36.054-134.583-36.054-214.736 0-95.491 25.049-154.126 43.008-154.126 11.877 0 28.738 25.802 37.691 82.453.646 4.091 4.484 6.885 8.579 6.237 4.091-.647 6.884-4.488 6.237-8.579-4.271-27.024-10.833-49.955-18.976-66.313-1.329-2.67-2.694-5.149-4.091-7.45 42.84 18.915 74.178 78.001 74.178 147.778z"/></g></g></svg>